# xmcd CD database file
#
# Track frame offsets:
#	150
#	14697
#	33667
#	46080
#	59202
#	79647
#	93305
#	108282
#	122310
#	134235
#	161772
#	174682
#	187460
#	211355
#
# Disc length: 3119 seconds
#
# Revision: 0
# Processed by: cddbd v1.5.2PL0 Copyright (c) Steve Scherf et al.
# Submitted via: CDex 1.51
#
DISCID=cf0c2d0e
DTITLE=Helge Tallqvist and Groovy Eyes with sidekick johnny - plays GEORGE "harmonica" SMITH feat. Pepe Ahlqvist
DYEAR=2005
DGENRE=Blues
TTITLE0=Hawaiian Eye
TTITLE1=Traveling South
TTITLE2=Soul Feet
TTITLE3=Tight Dress
TTITLE4=Telephone Blues
TTITLE5=Blues In The Dark
TTITLE6=Good Things
TTITLE7=You Don't Love Me
TTITLE8=Loose Screws
TTITLE9=Nobody Knows
TTITLE10=I Want A Woman
TTITLE11=Misty In C
TTITLE12=Conversation with George Smith
TTITLE13=Blues For The Reverend King
EXTD=YEAR: 2005
EXTT0=
EXTT1=
EXTT2=
EXTT3=
EXTT4=
EXTT5=
EXTT6=
EXTT7=
EXTT8=
EXTT9=
EXTT10=
EXTT11=
EXTT12=
EXTT13=
PLAYORDER=
